# Exported from Wings 3D 1.4.1.git9a2473e
mtllib spotlight.mtl
o cylinder1
#64 vertices, 50 faces
v 1.00000000 5.7760871e-17 1.00000000
v 0.92387953 -0.38268343 1.00000000
v 0.70710678 -0.70710678 1.00000000
v 0.38268343 -0.92387953 1.00000000
v 6.1230318e-17 -1.00000000 1.00000000
v -0.38268343 -0.92387953 1.00000000
v -0.70710678 -0.70710678 1.00000000
v -0.92387953 -0.38268343 1.00000000
v -1.00000000 -6.4699765e-17 1.00000000
v -0.92387953 0.38268343 1.00000000
v -0.70710678 0.70710678 1.00000000
v -0.38268343 0.92387953 1.00000000
v -1.8369095e-16 1.00000000 1.00000000
v 0.38268343 0.92387953 1.00000000
v 0.70710678 0.70710678 1.00000000
v 0.92387953 0.38268343 1.00000000
v 1.00000000 -6.4699765e-17 -1.00000000
v 0.92387953 -0.38268343 -1.00000000
v 0.70710678 -0.70710678 -1.00000000
v 0.38268343 -0.92387953 -1.00000000
v 6.1230318e-17 -1.00000000 -1.00000000
v -0.38268343 -0.92387953 -1.00000000
v -0.70710678 -0.70710678 -1.00000000
v -0.92387953 -0.38268343 -1.00000000
v -1.00000000 -1.8716040e-16 -1.00000000
v -0.92387953 0.38268343 -1.00000000
v -0.70710678 0.70710678 -1.00000000
v -0.38268343 0.92387953 -1.00000000
v -1.8369095e-16 1.00000000 -1.00000000
v 0.38268343 0.92387953 -1.00000000
v 0.70710678 0.70710678 -1.00000000
v 0.92387953 0.38268343 -1.00000000
v 0.63022827 5.4393926e-18 1.00000000
v 0.58225500 -0.24117792 1.00000000
v 0.44563869 -0.44563869 1.00000000
v 0.24117792 -0.58225500 1.00000000
v 6.1230318e-17 -0.63022827 1.00000000
v -0.24117792 -0.58225500 1.00000000
v -0.44563869 -0.44563869 1.00000000
v -0.58225500 -0.24117792 1.00000000
v -0.63022827 -1.7610434e-17 1.00000000
v -0.58225500 0.24117792 1.00000000
v -0.44563869 0.44563869 1.00000000
v -0.24117792 0.58225500 1.00000000
v -1.3660162e-16 0.63022827 1.00000000
v 0.24117792 0.58225500 1.00000000
v 0.44563869 0.44563869 1.00000000
v 0.58225500 0.24117792 1.00000000
v 0.63022827 -1.4316248e-16 -0.63733333
v 0.58225500 -0.24117792 -0.63733333
v 0.44563869 -0.44563869 -0.63733333
v 0.24117792 -0.58225500 -0.63733333
v 5.8751960e-17 -0.63022827 -0.63733333
v -0.24117792 -0.58225500 -0.63733333
v -0.44563869 -0.44563869 -0.63733333
v -0.58225500 -0.24117792 -0.63733333
v -0.63022827 -1.7846707e-16 -0.63733333
v -0.58225500 0.24117792 -0.63733333
v -0.44563869 0.44563869 -0.63733333
v -0.24117792 0.58225500 -0.63733333
v -1.9269574e-16 0.63022827 -0.63733333
v 0.24117792 0.58225500 -0.63733333
v 0.44563869 0.44563869 -0.63733333
v 0.58225500 0.24117792 -0.63733333
vn 0.70021451 9.9078040e-17 0.71393252
vn 0.64691385 -0.26796049 0.71393252
vn 0.49512643 -0.49512643 0.71393252
vn 0.26796049 -0.64691385 0.71393252
vn 0.0000000e+0 -0.70021451 0.71393252
vn -0.26796049 -0.64691385 0.71393252
vn -0.49512643 -0.49512643 0.71393252
vn -0.64691385 -0.26796049 0.71393252
vn -0.70021451 -8.9170236e-17 0.71393252
vn -0.64691385 0.26796049 0.71393252
vn -0.49512643 0.49512643 0.71393252
vn -0.26796049 0.64691385 0.71393252
vn -8.9170236e-17 0.70021451 0.71393252
vn 0.26796049 0.64691385 0.71393252
vn 0.49512643 0.49512643 0.71393252
vn 0.64691385 0.26796049 0.71393252
vn 0.89090915 1.1345463e-16 -0.45418155
vn 0.82309273 -0.34093617 -0.45418155
vn 0.62996790 -0.62996790 -0.45418155
vn 0.34093617 -0.82309273 -0.45418155
vn -3.7818211e-17 -0.89090915 -0.45418155
vn -0.34093617 -0.82309273 -0.45418155
vn -0.62996790 -0.62996790 -0.45418155
vn -0.82309273 -0.34093617 -0.45418155
vn -0.89090915 -1.2606070e-16 -0.45418155
vn -0.82309273 0.34093617 -0.45418155
vn -0.62996790 0.62996790 -0.45418155
vn -0.34093617 0.82309273 -0.45418155
vn -1.5127284e-16 0.89090915 -0.45418155
vn 0.34093617 0.82309273 -0.45418155
vn 0.62996790 0.62996790 -0.45418155
vn 0.82309273 0.34093617 -0.45418155
vn -0.70021451 -1.4861706e-16 0.71393252
vn -0.64691385 0.26796049 0.71393252
vn -0.49512643 0.49512643 0.71393252
vn -0.26796049 0.64691385 0.71393252
vn -1.9815608e-17 0.70021451 0.71393252
vn 0.26796049 0.64691385 0.71393252
vn 0.49512643 0.49512643 0.71393252
vn 0.64691385 0.26796049 0.71393252
vn 0.70021451 2.0806388e-16 0.71393252
vn 0.64691385 -0.26796049 0.71393252
vn 0.49512643 -0.49512643 0.71393252
vn 0.26796049 -0.64691385 0.71393252
vn 4.9539020e-17 -0.70021451 0.71393252
vn -0.26796049 -0.64691385 0.71393252
vn -0.49512643 -0.49512643 0.71393252
vn -0.64691385 -0.26796049 0.71393252
vn -0.89090915 -1.8909105e-16 0.45418155
vn -0.82309273 0.34093617 0.45418155
vn -0.62996790 0.62996790 0.45418155
vn -0.34093617 0.82309273 0.45418155
vn -3.7818211e-17 0.89090915 0.45418155
vn 0.34093617 0.82309273 0.45418155
vn 0.62996790 0.62996790 0.45418155
vn 0.82309273 0.34093617 0.45418155
vn 0.89090915 2.6472748e-16 0.45418155
vn 0.82309273 -0.34093617 0.45418155
vn 0.62996790 -0.62996790 0.45418155
vn 0.34093617 -0.82309273 0.45418155
vn 5.0424281e-17 -0.89090915 0.45418155
vn -0.34093617 -0.82309273 0.45418155
vn -0.62996790 -0.62996790 0.45418155
vn -0.82309273 -0.34093617 0.45418155
g cylinder1_default
usemtl default
s 1
f 1//1 17//17 32//32 16//16
f 1//1 33//33 34//34 2//2
f 2//2 18//18 17//17 1//1
f 2//2 34//34 35//35 3//3
f 3//3 19//19 18//18 2//2
f 3//3 35//35 36//36 4//4
f 4//4 20//20 19//19 3//3
f 4//4 36//36 37//37 5//5
f 5//5 21//21 20//20 4//4
f 5//5 37//37 38//38 6//6
f 6//6 22//22 21//21 5//5
f 6//6 38//38 39//39 7//7
f 7//7 23//23 22//22 6//6
f 7//7 39//39 40//40 8//8
f 8//8 24//24 23//23 7//7
f 8//8 40//40 41//41 9//9
f 9//9 25//25 24//24 8//8
f 9//9 41//41 42//42 10//10
f 10//10 26//26 25//25 9//9
f 10//10 42//42 43//43 11//11
f 11//11 27//27 26//26 10//10
f 11//11 43//43 44//44 12//12
f 12//12 28//28 27//27 11//11
f 12//12 44//44 45//45 13//13
f 13//13 29//29 28//28 12//12
f 13//13 45//45 46//46 14//14
f 14//14 30//30 29//29 13//13
f 14//14 46//46 47//47 15//15
f 15//15 31//31 30//30 14//14
f 15//15 47//47 48//48 16//16
f 16//16 32//32 31//31 15//15
f 16//16 48//48 33//33 1//1
f 18//18 19//19 20//20 21//21 22//22 23//23 24//24 25//25 26//26 27//27 28//28 29//29 30//30 31//31 32//32 17//17
f 33//33 49//49 50//50 34//34
f 34//34 50//50 51//51 35//35
f 35//35 51//51 52//52 36//36
f 36//36 52//52 53//53 37//37
f 37//37 53//53 54//54 38//38
f 38//38 54//54 55//55 39//39
f 39//39 55//55 56//56 40//40
f 40//40 56//56 57//57 41//41
f 41//41 57//57 58//58 42//42
f 42//42 58//58 59//59 43//43
f 43//43 59//59 60//60 44//44
f 44//44 60//60 61//61 45//45
f 45//45 61//61 62//62 46//46
f 46//46 62//62 63//63 47//47
f 47//47 63//63 64//64 48//48
f 48//48 64//64 49//49 33//33
f 49//49 64//64 63//63 62//62 61//61 60//60 59//59 58//58 57//57 56//56 55//55 54//54 53//53 52//52 51//51 50//50
